<?xml version="1.0" encoding="utf-8"?>
<!-- Generator: Adobe Illustrator 24.1.3, SVG Export Plug-In . SVG Version: 6.00 Build 0)  -->
<svg version="1.1" id="Calque_1" xmlns="http://www.w3.org/2000/svg" xmlns:xlink="http://www.w3.org/1999/xlink" x="0px" y="0px"
	 viewBox="0 0 171.5 28.3" style="enable-background:new 0 0 171.5 28.3;" xml:space="preserve">
<style type="text/css">
	.st0{fill-rule:evenodd;clip-rule:evenodd;fill:url(#Etoile_à_5_branches_1_copie_4_5_);}
	.st1{fill-rule:evenodd;clip-rule:evenodd;fill:url(#Etoile_à_5_branches_1_copie_4_6_);}
	.st2{fill-rule:evenodd;clip-rule:evenodd;fill:url(#Etoile_à_5_branches_1_copie_4_7_);}
	.st3{fill-rule:evenodd;clip-rule:evenodd;fill:url(#Etoile_à_5_branches_1_copie_4_8_);}
	.st4{fill-rule:evenodd;clip-rule:evenodd;fill:url(#Etoile_à_5_branches_1_copie_4_9_);}
</style>
<g>
	
		<linearGradient id="Etoile_à_5_branches_1_copie_4_5_" gradientUnits="userSpaceOnUse" x1="2.975643e-02" y1="14.1473" x2="29.9017" y2="14.1473">
		<stop  offset="0" style="stop-color:#EAA855"/>
		<stop  offset="1" style="stop-color:#FBE692"/>
	</linearGradient>
	<path id="Etoile_à_5_branches_1_copie_4" class="st0" d="M15,0l4.9,8.9l10,1.9l-7,7.4l1.3,10.1L15,24l-9.2,4.3L7,18.2l-7-7.4
		l10-1.9L15,0"/>
	
		<linearGradient id="Etoile_à_5_branches_1_copie_4_6_" gradientUnits="userSpaceOnUse" x1="35.4038" y1="14.1473" x2="65.2758" y2="14.1473">
		<stop  offset="0" style="stop-color:#EAA855"/>
		<stop  offset="1" style="stop-color:#FBE692"/>
	</linearGradient>
	<path id="Etoile_à_5_branches_1_copie_4_1_" class="st1" d="M50.3,0l4.9,8.9l10,1.9l-7,7.4l1.3,10.1L50.3,24l-9.2,4.3l1.3-10.1
		l-7-7.4l10-1.9L50.3,0"/>
	
		<linearGradient id="Etoile_à_5_branches_1_copie_4_7_" gradientUnits="userSpaceOnUse" x1="70.8194" y1="14.1473" x2="100.6914" y2="14.1473">
		<stop  offset="0" style="stop-color:#EAA855"/>
		<stop  offset="1" style="stop-color:#FBE692"/>
	</linearGradient>
	<path id="Etoile_à_5_branches_1_copie_4_2_" class="st2" d="M85.8,0l4.9,8.9l10,1.9l-7,7.4L95,28.3L85.8,24l-9.2,4.3l1.3-10.1
		l-7-7.4l10-1.9L85.8,0"/>
	
		<linearGradient id="Etoile_à_5_branches_1_copie_4_8_" gradientUnits="userSpaceOnUse" x1="106.235" y1="14.1473" x2="136.107" y2="14.1473">
		<stop  offset="0" style="stop-color:#EAA855"/>
		<stop  offset="1" style="stop-color:#FBE692"/>
	</linearGradient>
	<path id="Etoile_à_5_branches_1_copie_4_4_" class="st3" d="M121.2,0l4.9,8.9l10,1.9l-7,7.4l1.3,10.1l-9.2-4.3l-9.2,4.3l1.3-10.1
		l-7-7.4l10-1.9L121.2,0"/>
	
		<linearGradient id="Etoile_à_5_branches_1_copie_4_9_" gradientUnits="userSpaceOnUse" x1="141.6507" y1="14.1473" x2="171.5226" y2="14.1473">
		<stop  offset="0" style="stop-color:#EAA855"/>
		<stop  offset="1" style="stop-color:#FBE692"/>
	</linearGradient>
	<path id="Etoile_à_5_branches_1_copie_4_3_" class="st4" d="M156.6,0l4.9,8.9l10,1.9l-7,7.4l1.3,10.1l-9.2-4.3l-9.2,4.3l1.3-10.1
		l-7-7.4l10-1.9L156.6,0"/>
</g>
</svg>
